<svg width="24" height="24" viewBox="0 0 24 24" fill="none" xmlns="http://www.w3.org/2000/svg">
  <path d="M21.49 2L13.54 8.27L15.09 4.68L21.49 2Z" fill="#E2761B" stroke="#E2761B" stroke-linecap="round" stroke-linejoin="round"/>
  <path d="M2.51 2L10.36 8.39L8.91 4.68L2.51 2Z" fill="#E4761B" stroke="#E4761B" stroke-linecap="round" stroke-linejoin="round"/>
  <path d="M18.82 16.52L16.95 19.84L21.07 21.12L22.51 16.68L18.82 16.52Z" fill="#E4761B" stroke="#E4761B" stroke-linecap="round" stroke-linejoin="round"/>
  <path d="M1.51 16.68L2.93 21.12L7.05 19.84L5.18 16.52L1.51 16.68Z" fill="#E4761B" stroke="#E4761B" stroke-linecap="round" stroke-linejoin="round"/>
  <path d="M7.05 12.73L5.18 15.05L7.05 15.05L7.05 12.73Z" fill="#E4761B" stroke="#E4761B" stroke-linecap="round" stroke-linejoin="round"/>
  <path d="M16.95 12.73L16.95 15.05L18.82 15.05L16.95 12.73Z" fill="#E4761B" stroke="#E4761B" stroke-linecap="round" stroke-linejoin="round"/>
  <path d="M7.05 19.84L10.36 18.52L7.45 16.52L7.05 19.84Z" fill="#E4761B" stroke="#E4761B" stroke-linecap="round" stroke-linejoin="round"/>
  <path d="M13.64 18.52L16.95 19.84L16.55 16.52L13.64 18.52Z" fill="#E4761B" stroke="#E4761B" stroke-linecap="round" stroke-linejoin="round"/>
  <path d="M16.95 19.84L13.64 18.52L13.91 20.52L13.88 21.08L16.95 19.84Z" fill="#D7C1B3" stroke="#D7C1B3" stroke-linecap="round" stroke-linejoin="round"/>
  <path d="M7.05 19.84L10.12 21.08L10.09 20.52L10.36 18.52L7.05 19.84Z" fill="#D7C1B3" stroke="#D7C1B3" stroke-linecap="round" stroke-linejoin="round"/>
  <path d="M10.12 14.52L7.45 13.68L9.27 12.73L10.12 14.52Z" fill="#233447" stroke="#233447" stroke-linecap="round" stroke-linejoin="round"/>
  <path d="M13.88 14.52L14.73 12.73L16.55 13.68L13.88 14.52Z" fill="#233447" stroke="#233447" stroke-linecap="round" stroke-linejoin="round"/>
  <path d="M7.05 19.84L7.45 16.52L5.18 16.68L7.05 19.84Z" fill="#CD6116" stroke="#CD6116" stroke-linecap="round" stroke-linejoin="round"/>
  <path d="M16.55 16.52L16.95 19.84L18.82 16.68L16.55 16.52Z" fill="#CD6116" stroke="#CD6116" stroke-linecap="round" stroke-linejoin="round"/>
  <path d="M18.82 15.05L16.95 15.05L16.55 13.68L18.82 15.05Z" fill="#CD6116" stroke="#CD6116" stroke-linecap="round" stroke-linejoin="round"/>
  <path d="M7.05 15.05L5.18 15.05L7.45 13.68L7.05 15.05Z" fill="#CD6116" stroke="#CD6116" stroke-linecap="round" stroke-linejoin="round"/>
  <path d="M5.18 15.05L7.05 15.05L7.05 16.52L5.18 16.68L5.18 15.05Z" fill="#E4751F" stroke="#E4751F" stroke-linecap="round" stroke-linejoin="round"/>
  <path d="M16.95 15.05L18.82 15.05L18.82 16.68L16.95 16.52L16.95 15.05Z" fill="#E4751F" stroke="#E4751F" stroke-linecap="round" stroke-linejoin="round"/>
  <path d="M18.82 15.05L16.55 13.68L18.82 15.05Z" fill="#F6851B" stroke="#F6851B" stroke-linecap="round" stroke-linejoin="round"/>
  <path d="M7.45 13.68L5.18 15.05L7.45 13.68Z" fill="#F6851B" stroke="#F6851B" stroke-linecap="round" stroke-linejoin="round"/>
  <path d="M10.12 14.52L9.27 12.73L10.12 14.52Z" fill="#C0AD9E" stroke="#C0AD9E" stroke-linecap="round" stroke-linejoin="round"/>
  <path d="M14.73 12.73L13.88 14.52L14.73 12.73Z" fill="#C0AD9E" stroke="#C0AD9E" stroke-linecap="round" stroke-linejoin="round"/>
  <path d="M7.05 15.05L7.45 13.68L7.05 15.05Z" fill="#161616" stroke="#161616" stroke-linecap="round" stroke-linejoin="round"/>
  <path d="M16.55 13.68L16.95 15.05L16.55 13.68Z" fill="#161616" stroke="#161616" stroke-linecap="round" stroke-linejoin="round"/>
  <path d="M8.91 4.68L10.36 8.27L13.54 8.27L15.09 4.68L8.91 4.68Z" fill="#763D16" stroke="#763D16" stroke-linecap="round" stroke-linejoin="round"/>
  <path d="M2.51 2L5.18 16.68L7.05 19.84L2.51 2Z" fill="#F6851B" stroke="#F6851B" stroke-linecap="round" stroke-linejoin="round"/>
  <path d="M21.49 2L18.82 16.68L16.95 19.84L21.49 2Z" fill="#F6851B" stroke="#F6851B" stroke-linecap="round" stroke-linejoin="round"/>
  <path d="M10.36 8.27L8.91 4.68L13.54 8.27L10.36 8.27Z" fill="#F6851B" stroke="#F6851B" stroke-linecap="round" stroke-linejoin="round"/>
</svg>
